<mxfile host="app.diagrams.net" agent="Mozilla/5.0 (Windows NT 10.0; Win64; x64) AppleWebKit/537.36 (KHTML, like Gecko) Chrome/136.0.0.0 Safari/537.36 Edg/136.0.0.0" version="26.2.14">
  <diagram name="第 1 页" id="wSPP3D39cKeA3IWlcEHi">
    <mxGraphModel dx="980" dy="546" grid="1" gridSize="10" guides="1" tooltips="1" connect="1" arrows="1" fold="1" page="1" pageScale="1" pageWidth="827" pageHeight="1169" math="0" shadow="0">
      <root>
        <mxCell id="0" />
        <mxCell id="1" parent="0" />
        <mxCell id="vSxhCDS73HXSJ798EHO--1" value="" style="rounded=0;whiteSpace=wrap;html=1;" vertex="1" parent="1">
          <mxGeometry x="170" y="220" width="50" height="20" as="geometry" />
        </mxCell>
        <mxCell id="vSxhCDS73HXSJ798EHO--2" value="" style="rounded=0;whiteSpace=wrap;html=1;" vertex="1" parent="1">
          <mxGeometry x="230" y="220" width="50" height="20" as="geometry" />
        </mxCell>
        <mxCell id="vSxhCDS73HXSJ798EHO--3" value="" style="rounded=0;whiteSpace=wrap;html=1;" vertex="1" parent="1">
          <mxGeometry x="294" y="220" width="46" height="20" as="geometry" />
        </mxCell>
        <mxCell id="vSxhCDS73HXSJ798EHO--4" value="" style="rounded=0;whiteSpace=wrap;html=1;" vertex="1" parent="1">
          <mxGeometry x="350" y="220" width="50" height="20" as="geometry" />
        </mxCell>
        <mxCell id="vSxhCDS73HXSJ798EHO--5" value="" style="rounded=0;whiteSpace=wrap;html=1;" vertex="1" parent="1">
          <mxGeometry x="410" y="220" width="50" height="20" as="geometry" />
        </mxCell>
        <mxCell id="vSxhCDS73HXSJ798EHO--6" value="" style="rounded=0;whiteSpace=wrap;html=1;" vertex="1" parent="1">
          <mxGeometry x="474" y="220" width="46" height="20" as="geometry" />
        </mxCell>
        <mxCell id="vSxhCDS73HXSJ798EHO--7" value="" style="rounded=0;whiteSpace=wrap;html=1;" vertex="1" parent="1">
          <mxGeometry x="530" y="220" width="50" height="20" as="geometry" />
        </mxCell>
        <mxCell id="vSxhCDS73HXSJ798EHO--8" value="" style="rounded=0;whiteSpace=wrap;html=1;" vertex="1" parent="1">
          <mxGeometry x="594" y="220" width="46" height="20" as="geometry" />
        </mxCell>
        <mxCell id="vSxhCDS73HXSJ798EHO--9" value="DPC0" style="text;html=1;align=center;verticalAlign=middle;whiteSpace=wrap;rounded=0;" vertex="1" parent="1">
          <mxGeometry x="165" y="190" width="60" height="30" as="geometry" />
        </mxCell>
        <mxCell id="vSxhCDS73HXSJ798EHO--10" value="DPC7" style="text;html=1;align=center;verticalAlign=middle;whiteSpace=wrap;rounded=0;" vertex="1" parent="1">
          <mxGeometry x="587" y="190" width="60" height="30" as="geometry" />
        </mxCell>
        <mxCell id="vSxhCDS73HXSJ798EHO--11" value="DPC1" style="text;html=1;align=center;verticalAlign=middle;whiteSpace=wrap;rounded=0;" vertex="1" parent="1">
          <mxGeometry x="225" y="190" width="60" height="30" as="geometry" />
        </mxCell>
        <mxCell id="vSxhCDS73HXSJ798EHO--12" value="DPC2" style="text;html=1;align=center;verticalAlign=middle;whiteSpace=wrap;rounded=0;" vertex="1" parent="1">
          <mxGeometry x="290" y="190" width="60" height="30" as="geometry" />
        </mxCell>
        <mxCell id="vSxhCDS73HXSJ798EHO--13" value="DPC3" style="text;html=1;align=center;verticalAlign=middle;whiteSpace=wrap;rounded=0;" vertex="1" parent="1">
          <mxGeometry x="350" y="190" width="60" height="30" as="geometry" />
        </mxCell>
        <mxCell id="vSxhCDS73HXSJ798EHO--14" value="DPC4" style="text;html=1;align=center;verticalAlign=middle;whiteSpace=wrap;rounded=0;" vertex="1" parent="1">
          <mxGeometry x="405" y="190" width="60" height="30" as="geometry" />
        </mxCell>
        <mxCell id="vSxhCDS73HXSJ798EHO--15" value="DPC5" style="text;html=1;align=center;verticalAlign=middle;whiteSpace=wrap;rounded=0;" vertex="1" parent="1">
          <mxGeometry x="467" y="190" width="60" height="30" as="geometry" />
        </mxCell>
        <mxCell id="vSxhCDS73HXSJ798EHO--16" value="DPC6" style="text;html=1;align=center;verticalAlign=middle;whiteSpace=wrap;rounded=0;" vertex="1" parent="1">
          <mxGeometry x="525" y="190" width="60" height="30" as="geometry" />
        </mxCell>
        <mxCell id="vSxhCDS73HXSJ798EHO--17" value="" style="rounded=0;whiteSpace=wrap;html=1;" vertex="1" parent="1">
          <mxGeometry x="170" y="250" width="50" height="20" as="geometry" />
        </mxCell>
        <mxCell id="vSxhCDS73HXSJ798EHO--18" value="" style="rounded=0;whiteSpace=wrap;html=1;" vertex="1" parent="1">
          <mxGeometry x="230" y="250" width="50" height="20" as="geometry" />
        </mxCell>
        <mxCell id="vSxhCDS73HXSJ798EHO--19" value="" style="rounded=0;whiteSpace=wrap;html=1;" vertex="1" parent="1">
          <mxGeometry x="294" y="250" width="46" height="20" as="geometry" />
        </mxCell>
        <mxCell id="vSxhCDS73HXSJ798EHO--20" value="" style="rounded=0;whiteSpace=wrap;html=1;" vertex="1" parent="1">
          <mxGeometry x="350" y="250" width="50" height="20" as="geometry" />
        </mxCell>
        <mxCell id="vSxhCDS73HXSJ798EHO--21" value="" style="rounded=0;whiteSpace=wrap;html=1;" vertex="1" parent="1">
          <mxGeometry x="410" y="250" width="50" height="20" as="geometry" />
        </mxCell>
        <mxCell id="vSxhCDS73HXSJ798EHO--22" value="" style="rounded=0;whiteSpace=wrap;html=1;" vertex="1" parent="1">
          <mxGeometry x="474" y="250" width="46" height="20" as="geometry" />
        </mxCell>
        <mxCell id="vSxhCDS73HXSJ798EHO--23" value="" style="rounded=0;whiteSpace=wrap;html=1;" vertex="1" parent="1">
          <mxGeometry x="530" y="250" width="50" height="20" as="geometry" />
        </mxCell>
        <mxCell id="vSxhCDS73HXSJ798EHO--24" value="" style="rounded=0;whiteSpace=wrap;html=1;" vertex="1" parent="1">
          <mxGeometry x="594" y="250" width="46" height="20" as="geometry" />
        </mxCell>
        <mxCell id="vSxhCDS73HXSJ798EHO--25" value="" style="rounded=0;whiteSpace=wrap;html=1;" vertex="1" parent="1">
          <mxGeometry x="170" y="280" width="50" height="20" as="geometry" />
        </mxCell>
        <mxCell id="vSxhCDS73HXSJ798EHO--26" value="" style="rounded=0;whiteSpace=wrap;html=1;" vertex="1" parent="1">
          <mxGeometry x="230" y="280" width="50" height="20" as="geometry" />
        </mxCell>
        <mxCell id="vSxhCDS73HXSJ798EHO--27" value="" style="rounded=0;whiteSpace=wrap;html=1;" vertex="1" parent="1">
          <mxGeometry x="294" y="280" width="46" height="20" as="geometry" />
        </mxCell>
        <mxCell id="vSxhCDS73HXSJ798EHO--28" value="" style="rounded=0;whiteSpace=wrap;html=1;" vertex="1" parent="1">
          <mxGeometry x="350" y="280" width="50" height="20" as="geometry" />
        </mxCell>
        <mxCell id="vSxhCDS73HXSJ798EHO--29" value="" style="rounded=0;whiteSpace=wrap;html=1;" vertex="1" parent="1">
          <mxGeometry x="410" y="280" width="50" height="20" as="geometry" />
        </mxCell>
        <mxCell id="vSxhCDS73HXSJ798EHO--30" value="" style="rounded=0;whiteSpace=wrap;html=1;" vertex="1" parent="1">
          <mxGeometry x="474" y="280" width="46" height="20" as="geometry" />
        </mxCell>
        <mxCell id="vSxhCDS73HXSJ798EHO--31" value="" style="rounded=0;whiteSpace=wrap;html=1;" vertex="1" parent="1">
          <mxGeometry x="530" y="280" width="50" height="20" as="geometry" />
        </mxCell>
        <mxCell id="vSxhCDS73HXSJ798EHO--32" value="" style="rounded=0;whiteSpace=wrap;html=1;" vertex="1" parent="1">
          <mxGeometry x="594" y="280" width="46" height="20" as="geometry" />
        </mxCell>
        <mxCell id="vSxhCDS73HXSJ798EHO--33" value="" style="rounded=0;whiteSpace=wrap;html=1;" vertex="1" parent="1">
          <mxGeometry x="170" y="310" width="50" height="20" as="geometry" />
        </mxCell>
        <mxCell id="vSxhCDS73HXSJ798EHO--34" value="" style="rounded=0;whiteSpace=wrap;html=1;" vertex="1" parent="1">
          <mxGeometry x="230" y="310" width="50" height="20" as="geometry" />
        </mxCell>
        <mxCell id="vSxhCDS73HXSJ798EHO--35" value="" style="rounded=0;whiteSpace=wrap;html=1;" vertex="1" parent="1">
          <mxGeometry x="294" y="310" width="46" height="20" as="geometry" />
        </mxCell>
        <mxCell id="vSxhCDS73HXSJ798EHO--36" value="" style="rounded=0;whiteSpace=wrap;html=1;" vertex="1" parent="1">
          <mxGeometry x="350" y="310" width="50" height="20" as="geometry" />
        </mxCell>
        <mxCell id="vSxhCDS73HXSJ798EHO--37" value="" style="rounded=0;whiteSpace=wrap;html=1;" vertex="1" parent="1">
          <mxGeometry x="410" y="310" width="50" height="20" as="geometry" />
        </mxCell>
        <mxCell id="vSxhCDS73HXSJ798EHO--38" value="" style="rounded=0;whiteSpace=wrap;html=1;" vertex="1" parent="1">
          <mxGeometry x="474" y="310" width="46" height="20" as="geometry" />
        </mxCell>
        <mxCell id="vSxhCDS73HXSJ798EHO--39" value="" style="rounded=0;whiteSpace=wrap;html=1;" vertex="1" parent="1">
          <mxGeometry x="530" y="310" width="50" height="20" as="geometry" />
        </mxCell>
        <mxCell id="vSxhCDS73HXSJ798EHO--40" value="" style="rounded=0;whiteSpace=wrap;html=1;" vertex="1" parent="1">
          <mxGeometry x="594" y="310" width="46" height="20" as="geometry" />
        </mxCell>
        <mxCell id="vSxhCDS73HXSJ798EHO--41" value="" style="rounded=0;whiteSpace=wrap;html=1;" vertex="1" parent="1">
          <mxGeometry x="170" y="360" width="50" height="20" as="geometry" />
        </mxCell>
        <mxCell id="vSxhCDS73HXSJ798EHO--42" value="" style="rounded=0;whiteSpace=wrap;html=1;" vertex="1" parent="1">
          <mxGeometry x="230" y="360" width="50" height="20" as="geometry" />
        </mxCell>
        <mxCell id="vSxhCDS73HXSJ798EHO--43" value="" style="rounded=0;whiteSpace=wrap;html=1;" vertex="1" parent="1">
          <mxGeometry x="294" y="360" width="46" height="20" as="geometry" />
        </mxCell>
        <mxCell id="vSxhCDS73HXSJ798EHO--44" value="" style="rounded=0;whiteSpace=wrap;html=1;" vertex="1" parent="1">
          <mxGeometry x="350" y="360" width="50" height="20" as="geometry" />
        </mxCell>
        <mxCell id="vSxhCDS73HXSJ798EHO--45" value="" style="rounded=0;whiteSpace=wrap;html=1;" vertex="1" parent="1">
          <mxGeometry x="410" y="360" width="50" height="20" as="geometry" />
        </mxCell>
        <mxCell id="vSxhCDS73HXSJ798EHO--46" value="" style="rounded=0;whiteSpace=wrap;html=1;" vertex="1" parent="1">
          <mxGeometry x="474" y="360" width="46" height="20" as="geometry" />
        </mxCell>
        <mxCell id="vSxhCDS73HXSJ798EHO--47" value="" style="rounded=0;whiteSpace=wrap;html=1;" vertex="1" parent="1">
          <mxGeometry x="530" y="360" width="50" height="20" as="geometry" />
        </mxCell>
        <mxCell id="vSxhCDS73HXSJ798EHO--48" value="" style="rounded=0;whiteSpace=wrap;html=1;" vertex="1" parent="1">
          <mxGeometry x="594" y="360" width="46" height="20" as="geometry" />
        </mxCell>
        <mxCell id="vSxhCDS73HXSJ798EHO--49" value="" style="rounded=0;whiteSpace=wrap;html=1;" vertex="1" parent="1">
          <mxGeometry x="170" y="390" width="50" height="20" as="geometry" />
        </mxCell>
        <mxCell id="vSxhCDS73HXSJ798EHO--50" value="" style="rounded=0;whiteSpace=wrap;html=1;" vertex="1" parent="1">
          <mxGeometry x="230" y="390" width="50" height="20" as="geometry" />
        </mxCell>
        <mxCell id="vSxhCDS73HXSJ798EHO--51" value="" style="rounded=0;whiteSpace=wrap;html=1;" vertex="1" parent="1">
          <mxGeometry x="294" y="390" width="46" height="20" as="geometry" />
        </mxCell>
        <mxCell id="vSxhCDS73HXSJ798EHO--52" value="" style="rounded=0;whiteSpace=wrap;html=1;" vertex="1" parent="1">
          <mxGeometry x="350" y="390" width="50" height="20" as="geometry" />
        </mxCell>
        <mxCell id="vSxhCDS73HXSJ798EHO--53" value="" style="rounded=0;whiteSpace=wrap;html=1;" vertex="1" parent="1">
          <mxGeometry x="410" y="390" width="50" height="20" as="geometry" />
        </mxCell>
        <mxCell id="vSxhCDS73HXSJ798EHO--54" value="" style="rounded=0;whiteSpace=wrap;html=1;" vertex="1" parent="1">
          <mxGeometry x="474" y="390" width="46" height="20" as="geometry" />
        </mxCell>
        <mxCell id="vSxhCDS73HXSJ798EHO--55" value="" style="rounded=0;whiteSpace=wrap;html=1;" vertex="1" parent="1">
          <mxGeometry x="530" y="390" width="50" height="20" as="geometry" />
        </mxCell>
        <mxCell id="vSxhCDS73HXSJ798EHO--56" value="" style="rounded=0;whiteSpace=wrap;html=1;" vertex="1" parent="1">
          <mxGeometry x="594" y="390" width="46" height="20" as="geometry" />
        </mxCell>
        <mxCell id="vSxhCDS73HXSJ798EHO--57" value="" style="rounded=0;whiteSpace=wrap;html=1;" vertex="1" parent="1">
          <mxGeometry x="170" y="420" width="50" height="20" as="geometry" />
        </mxCell>
        <mxCell id="vSxhCDS73HXSJ798EHO--58" value="" style="rounded=0;whiteSpace=wrap;html=1;" vertex="1" parent="1">
          <mxGeometry x="230" y="420" width="50" height="20" as="geometry" />
        </mxCell>
        <mxCell id="vSxhCDS73HXSJ798EHO--59" value="" style="rounded=0;whiteSpace=wrap;html=1;" vertex="1" parent="1">
          <mxGeometry x="294" y="420" width="46" height="20" as="geometry" />
        </mxCell>
        <mxCell id="vSxhCDS73HXSJ798EHO--60" value="" style="rounded=0;whiteSpace=wrap;html=1;" vertex="1" parent="1">
          <mxGeometry x="350" y="420" width="50" height="20" as="geometry" />
        </mxCell>
        <mxCell id="vSxhCDS73HXSJ798EHO--61" value="" style="rounded=0;whiteSpace=wrap;html=1;" vertex="1" parent="1">
          <mxGeometry x="410" y="420" width="50" height="20" as="geometry" />
        </mxCell>
        <mxCell id="vSxhCDS73HXSJ798EHO--62" value="" style="rounded=0;whiteSpace=wrap;html=1;" vertex="1" parent="1">
          <mxGeometry x="474" y="420" width="46" height="20" as="geometry" />
        </mxCell>
        <mxCell id="vSxhCDS73HXSJ798EHO--63" value="" style="rounded=0;whiteSpace=wrap;html=1;" vertex="1" parent="1">
          <mxGeometry x="530" y="420" width="50" height="20" as="geometry" />
        </mxCell>
        <mxCell id="vSxhCDS73HXSJ798EHO--64" value="" style="rounded=0;whiteSpace=wrap;html=1;" vertex="1" parent="1">
          <mxGeometry x="594" y="420" width="46" height="20" as="geometry" />
        </mxCell>
        <mxCell id="vSxhCDS73HXSJ798EHO--65" value="" style="rounded=0;whiteSpace=wrap;html=1;" vertex="1" parent="1">
          <mxGeometry x="170" y="450" width="50" height="20" as="geometry" />
        </mxCell>
        <mxCell id="vSxhCDS73HXSJ798EHO--66" value="" style="rounded=0;whiteSpace=wrap;html=1;" vertex="1" parent="1">
          <mxGeometry x="230" y="450" width="50" height="20" as="geometry" />
        </mxCell>
        <mxCell id="vSxhCDS73HXSJ798EHO--67" value="" style="rounded=0;whiteSpace=wrap;html=1;" vertex="1" parent="1">
          <mxGeometry x="294" y="450" width="46" height="20" as="geometry" />
        </mxCell>
        <mxCell id="vSxhCDS73HXSJ798EHO--68" value="" style="rounded=0;whiteSpace=wrap;html=1;" vertex="1" parent="1">
          <mxGeometry x="350" y="450" width="50" height="20" as="geometry" />
        </mxCell>
        <mxCell id="vSxhCDS73HXSJ798EHO--69" value="" style="rounded=0;whiteSpace=wrap;html=1;" vertex="1" parent="1">
          <mxGeometry x="410" y="450" width="50" height="20" as="geometry" />
        </mxCell>
        <mxCell id="vSxhCDS73HXSJ798EHO--70" value="" style="rounded=0;whiteSpace=wrap;html=1;" vertex="1" parent="1">
          <mxGeometry x="474" y="450" width="46" height="20" as="geometry" />
        </mxCell>
        <mxCell id="vSxhCDS73HXSJ798EHO--71" value="" style="rounded=0;whiteSpace=wrap;html=1;" vertex="1" parent="1">
          <mxGeometry x="530" y="450" width="50" height="20" as="geometry" />
        </mxCell>
        <mxCell id="vSxhCDS73HXSJ798EHO--72" value="" style="rounded=0;whiteSpace=wrap;html=1;" vertex="1" parent="1">
          <mxGeometry x="594" y="450" width="46" height="20" as="geometry" />
        </mxCell>
        <mxCell id="vSxhCDS73HXSJ798EHO--73" value="" style="rounded=0;whiteSpace=wrap;html=1;" vertex="1" parent="1">
          <mxGeometry x="170" y="480" width="50" height="20" as="geometry" />
        </mxCell>
        <mxCell id="vSxhCDS73HXSJ798EHO--74" value="" style="rounded=0;whiteSpace=wrap;html=1;" vertex="1" parent="1">
          <mxGeometry x="230" y="480" width="50" height="20" as="geometry" />
        </mxCell>
        <mxCell id="vSxhCDS73HXSJ798EHO--75" value="" style="rounded=0;whiteSpace=wrap;html=1;" vertex="1" parent="1">
          <mxGeometry x="294" y="480" width="46" height="20" as="geometry" />
        </mxCell>
        <mxCell id="vSxhCDS73HXSJ798EHO--76" value="" style="rounded=0;whiteSpace=wrap;html=1;" vertex="1" parent="1">
          <mxGeometry x="350" y="480" width="50" height="20" as="geometry" />
        </mxCell>
        <mxCell id="vSxhCDS73HXSJ798EHO--77" value="" style="rounded=0;whiteSpace=wrap;html=1;" vertex="1" parent="1">
          <mxGeometry x="410" y="480" width="50" height="20" as="geometry" />
        </mxCell>
        <mxCell id="vSxhCDS73HXSJ798EHO--78" value="" style="rounded=0;whiteSpace=wrap;html=1;" vertex="1" parent="1">
          <mxGeometry x="474" y="480" width="46" height="20" as="geometry" />
        </mxCell>
        <mxCell id="vSxhCDS73HXSJ798EHO--79" value="" style="rounded=0;whiteSpace=wrap;html=1;" vertex="1" parent="1">
          <mxGeometry x="530" y="480" width="50" height="20" as="geometry" />
        </mxCell>
        <mxCell id="vSxhCDS73HXSJ798EHO--80" value="" style="rounded=0;whiteSpace=wrap;html=1;" vertex="1" parent="1">
          <mxGeometry x="594" y="480" width="46" height="20" as="geometry" />
        </mxCell>
        <mxCell id="vSxhCDS73HXSJ798EHO--81" value="......" style="text;html=1;align=center;verticalAlign=middle;whiteSpace=wrap;rounded=0;" vertex="1" parent="1">
          <mxGeometry x="380" y="330" width="60" height="30" as="geometry" />
        </mxCell>
        <mxCell id="vSxhCDS73HXSJ798EHO--82" value="" style="shape=curlyBracket;whiteSpace=wrap;html=1;rounded=1;labelPosition=left;verticalLabelPosition=middle;align=right;verticalAlign=middle;" vertex="1" parent="1">
          <mxGeometry x="90" y="220" width="20" height="280" as="geometry" />
        </mxCell>
        <mxCell id="vSxhCDS73HXSJ798EHO--85" value="14" style="text;html=1;align=center;verticalAlign=middle;whiteSpace=wrap;rounded=0;" vertex="1" parent="1">
          <mxGeometry x="40" y="345" width="60" height="30" as="geometry" />
        </mxCell>
        <mxCell id="vSxhCDS73HXSJ798EHO--86" value="AP0" style="text;html=1;align=center;verticalAlign=middle;whiteSpace=wrap;rounded=0;" vertex="1" parent="1">
          <mxGeometry x="110" y="215" width="60" height="30" as="geometry" />
        </mxCell>
        <mxCell id="vSxhCDS73HXSJ798EHO--87" value="AP1" style="text;html=1;align=center;verticalAlign=middle;whiteSpace=wrap;rounded=0;" vertex="1" parent="1">
          <mxGeometry x="110" y="245" width="60" height="30" as="geometry" />
        </mxCell>
        <mxCell id="vSxhCDS73HXSJ798EHO--88" value="AP2" style="text;html=1;align=center;verticalAlign=middle;whiteSpace=wrap;rounded=0;" vertex="1" parent="1">
          <mxGeometry x="110" y="275" width="60" height="30" as="geometry" />
        </mxCell>
        <mxCell id="vSxhCDS73HXSJ798EHO--89" value="AP3" style="text;html=1;align=center;verticalAlign=middle;whiteSpace=wrap;rounded=0;" vertex="1" parent="1">
          <mxGeometry x="110" y="305" width="60" height="30" as="geometry" />
        </mxCell>
        <mxCell id="vSxhCDS73HXSJ798EHO--91" value="AP13" style="text;html=1;align=center;verticalAlign=middle;whiteSpace=wrap;rounded=0;" vertex="1" parent="1">
          <mxGeometry x="110" y="475" width="60" height="30" as="geometry" />
        </mxCell>
        <mxCell id="vSxhCDS73HXSJ798EHO--92" value="AP12" style="text;html=1;align=center;verticalAlign=middle;whiteSpace=wrap;rounded=0;" vertex="1" parent="1">
          <mxGeometry x="110" y="445" width="60" height="30" as="geometry" />
        </mxCell>
        <mxCell id="vSxhCDS73HXSJ798EHO--93" value="AP11" style="text;html=1;align=center;verticalAlign=middle;whiteSpace=wrap;rounded=0;" vertex="1" parent="1">
          <mxGeometry x="110" y="415" width="60" height="30" as="geometry" />
        </mxCell>
        <mxCell id="vSxhCDS73HXSJ798EHO--94" value="AP10" style="text;html=1;align=center;verticalAlign=middle;whiteSpace=wrap;rounded=0;" vertex="1" parent="1">
          <mxGeometry x="110" y="385" width="60" height="30" as="geometry" />
        </mxCell>
        <mxCell id="vSxhCDS73HXSJ798EHO--95" value="AP9" style="text;html=1;align=center;verticalAlign=middle;whiteSpace=wrap;rounded=0;" vertex="1" parent="1">
          <mxGeometry x="110" y="355" width="60" height="30" as="geometry" />
        </mxCell>
      </root>
    </mxGraphModel>
  </diagram>
</mxfile>
